<?xml version="1.0" standalone="no"?>
<!DOCTYPE svg PUBLIC "-//W3C//DTD SVG 20010904//EN"
 "http://www.w3.org/TR/2001/REC-SVG-20010904/DTD/svg10.dtd">
<svg version="1.0" xmlns="http://www.w3.org/2000/svg"
 width="421.000000pt" height="421.000000pt" viewBox="0 0 421.000000 421.000000"
 preserveAspectRatio="xMidYMid meet">
<metadata>
Created by potrace 1.14, written by Peter Selinger 2001-2017
</metadata>
<g transform="translate(0.000000,421.000000) scale(0.100000,-0.100000)"
fill="#000000" stroke="none">
<path d="M1937 3409 c-124 -20 -275 -80 -375 -148 -80 -54 -222 -196 -222
-221 0 -6 -4 -10 -10 -10 -5 0 -10 -7 -10 -15 0 -8 -5 -15 -11 -15 -5 0 -7 -4
-4 -10 3 -5 2 -10 -4 -10 -10 0 -27 -38 -23 -52 1 -5 -3 -8 -8 -8 -6 0 -10 -8
-10 -18 0 -10 -3 -22 -7 -26 -5 -4 -9 -12 -9 -17 -1 -5 -3 -11 -4 -14 -1 -3
-3 -8 -4 -12 -2 -5 -8 -28 -15 -53 -7 -25 -15 -56 -18 -70 -2 -14 -8 -43 -13
-65 -23 -107 -32 -290 -17 -380 15 -92 15 -95 0 -95 -8 0 -21 7 -29 15 -29 29
-79 9 -91 -36 -13 -47 -5 -196 16 -289 12 -52 21 -100 21 -107 0 -9 -16 -12
-55 -10 -64 4 -108 -12 -125 -44 -14 -24 -11 -144 15 -624 4 -77 9 -153 10
-170 2 -31 -22 -82 -58 -122 -11 -13 -17 -23 -13 -23 5 0 3 -6 -3 -14 -7 -8
-14 -22 -16 -32 -2 -11 -13 -44 -25 -74 -11 -30 -22 -65 -25 -77 -3 -13 -7
-35 -11 -50 -3 -15 -7 -30 -9 -34 -3 -4 -7 -24 -11 -44 -3 -21 -8 -47 -10 -59
-2 -11 -7 -35 -10 -52 l-5 -32 158 -5 c200 -7 2208 -7 2407 0 l148 5 -6 41
c-24 153 -88 387 -111 411 -8 8 -15 18 -15 23 0 5 -10 24 -23 43 -17 25 -23
47 -21 75 1 22 5 105 8 185 4 80 8 168 11 195 6 72 19 343 18 389 -2 63 -34
87 -117 88 l-68 1 6 31 c3 17 8 42 11 56 3 14 7 36 10 50 3 14 7 36 10 50 3
14 8 61 10 105 6 131 -34 192 -99 150 -32 -21 -47 -13 -37 23 27 97 16 330
-23 503 -59 259 -169 423 -377 563 -30 20 -59 36 -66 36 -7 0 -13 5 -13 12 0
6 -3 9 -6 5 -3 -3 -20 2 -37 12 -18 10 -45 21 -62 26 -16 5 -33 9 -37 10 -5 2
-9 3 -10 5 -3 2 -21 6 -58 14 -14 3 -36 9 -50 12 -38 10 -309 13 -363 3z"/>
</g>
</svg>
